<svg width="140" height="45" viewBox="0 0 140 45" fill="none" xmlns="http://www.w3.org/2000/svg">
<path fill-rule="evenodd" clip-rule="evenodd" d="M24.135 0C24.7574 0 25.2619 0.50454 25.2619 1.12692V2.28186L25.6462 1.65022C25.9656 1.12514 26.6615 0.9389 27.2005 1.23423C27.7395 1.52957 27.9175 2.19465 27.5981 2.71972L25.4847 6.19367L40.2449 30.4563L41.5882 27.9587C41.7883 27.5867 42.2587 27.4344 42.6388 27.6186C43.019 27.8027 43.165 28.2536 42.9649 28.6256L41.4287 31.4817C41.2745 31.7685 40.9596 31.9247 40.6492 31.8969C40.5632 32.1256 40.3963 32.3262 40.1599 32.4557C39.798 32.654 39.3653 32.6352 39.0234 32.4424L38.9798 32.8623C34.9412 32.4431 28.4629 28.8254 25.2619 18.9457L25.2619 32.0276C25.2619 32.65 24.7574 33.1545 24.135 33.1545C23.5126 33.1545 23.0081 32.65 23.0081 32.0276L23.0081 19.5325C19.7448 28.9692 13.4443 32.4515 9.48674 32.8623L9.43706 32.3837C9.08325 32.6297 8.60282 32.6726 8.20701 32.4557C7.97133 32.3265 7.80467 32.1267 7.71843 31.8988C7.41681 31.9157 7.11535 31.7604 6.96549 31.4817L5.42934 28.6256C5.22925 28.2536 5.37523 27.8027 5.75538 27.6186C6.13554 27.4344 6.60593 27.5867 6.80602 27.9587L8.13654 30.4325L22.8822 6.19367L20.7688 2.71972C20.4494 2.19465 20.6274 1.52957 21.1664 1.23423C21.7054 0.9389 22.4013 1.12514 22.7207 1.65022L23.0081 2.1226V1.12692C23.0081 0.50454 23.5126 0 24.135 0ZM10.4689 30.8767C14.6115 29.7907 21.4241 24.8953 23.0081 11.3563V10.2647L10.4689 30.8767ZM37.8785 30.8446L25.3412 10.2358C26.6587 24.4936 33.612 29.6652 37.8785 30.8446Z" fill="#5392F9"/>
<path d="M52.0795 24.5771C53.733 24.5771 55.1409 24.0041 56.2869 22.8417C57.4492 21.6794 58.0222 20.2878 58.0222 18.667C58.0222 17.0463 57.4492 15.6384 56.2869 14.4433C55.1409 13.2973 53.733 12.7243 52.0795 12.7243C50.4423 12.7243 49.0344 13.2809 47.8884 14.4433C46.7097 15.6384 46.1531 17.0627 46.1531 18.6507C46.1531 20.2551 46.7097 21.6466 47.8884 22.8417C49.0508 24.0041 50.4423 24.5771 52.0795 24.5771ZM60.4452 25.8213L60.4124 25.7885C60.4124 26.1323 60.2978 26.4106 60.0686 26.6398C59.8231 26.8854 59.5447 27 59.2173 27C58.8571 27 58.5625 26.8854 58.3169 26.6726C58.1041 26.427 57.9895 26.1323 57.9895 25.7885V24.5279C57.7603 24.7408 57.4983 24.97 57.2037 25.1992C56.909 25.4284 56.647 25.6084 56.4178 25.7558C55.763 26.1651 55.0754 26.4761 54.3551 26.6889C53.6347 26.9018 52.8817 27 52.0795 27C49.7711 27 47.8066 26.1814 46.1694 24.5443C44.5323 22.8908 43.7301 20.9263 43.7301 18.6507C43.7301 16.3751 44.5323 14.4105 46.1694 12.757C47.8066 11.1035 49.7711 10.3013 52.0795 10.3013C54.3878 10.3013 56.3851 11.1035 58.0058 12.757C59.643 14.4105 60.4452 16.3751 60.4452 18.6507V25.8213ZM79.3179 10.3341L79.2524 10.4487C79.3998 10.5142 79.5307 10.596 79.6453 10.7106C79.7599 10.8252 79.8418 10.9071 79.8909 10.9726C79.9564 11.0544 80.0055 11.1527 80.0382 11.2509C80.071 11.3491 80.0874 11.4473 80.0874 11.5456C80.0874 11.611 80.071 11.6929 80.0546 11.7911C80.0382 11.8894 80.0055 11.9712 79.9728 12.0367L77.1405 19.2237L74.2919 26.427C74.1937 26.6726 74.03 26.8527 73.8499 26.9836C73.6698 27.0982 73.4406 27.1637 73.1623 27.1637C72.9168 27.1637 72.6876 27.0982 72.4911 26.9836C72.2947 26.8527 72.1473 26.6726 72.0491 26.4434L70.5102 22.8253L68.9713 19.1909L67.4488 15.5565L65.9099 11.9057C65.8771 11.7584 65.8608 11.6274 65.8608 11.4964C65.8608 11.4146 65.8771 11.3327 65.8935 11.2673L65.959 11.0217C66.0081 10.8907 66.09 10.7761 66.1882 10.6615C66.2864 10.5469 66.4338 10.4487 66.6138 10.3668C66.7612 10.3013 66.9085 10.2686 67.0722 10.2686C67.1541 10.2686 67.2359 10.285 67.3178 10.3013C67.3997 10.3177 67.4979 10.3505 67.5961 10.3832C67.7107 10.4487 67.8253 10.5305 67.9235 10.6288C68.0218 10.727 68.0872 10.858 68.1527 11.0053L73.1132 22.678L74.2428 19.8621L75.3561 17.0463L76.5348 14.0504L77.7299 11.0381L77.7135 11.0544C77.7626 10.9398 77.8445 10.8089 77.9591 10.6779C78.0737 10.5469 78.2047 10.4487 78.352 10.3668H78.3356C78.4175 10.3177 78.4993 10.285 78.5812 10.2686C78.6631 10.2522 78.7613 10.2522 78.8759 10.2522C78.9577 10.2522 79.0396 10.2686 79.1215 10.285C79.2033 10.3013 79.2688 10.3177 79.3179 10.3341ZM86.7963 9.8757H86.7799C87.1401 9.8757 87.4839 10.0394 87.7949 10.3832C87.844 10.4651 87.8932 10.5633 87.9423 10.6779C87.9914 10.7925 88.0078 10.9398 88.0078 11.1199V25.7722C88.0078 25.9522 87.9914 26.0996 87.9423 26.2142C87.8932 26.3288 87.844 26.427 87.7786 26.5089C87.4675 26.8363 87.1401 27 86.7963 27C86.4852 27 86.2069 26.8527 85.9613 26.6235C85.6994 26.3779 85.5684 26.0996 85.5684 25.7558V11.1035C85.5684 10.7597 85.6994 10.4978 85.9613 10.2522C86.2069 10.023 86.4852 9.8757 86.7963 9.8757ZM86.8454 3.75286C87.1892 3.75286 87.4839 3.86746 87.7294 4.08028C87.9586 4.32585 88.0732 4.62053 88.0732 4.96433V7.69832C88.0732 8.00938 87.9586 8.30406 87.7131 8.566C87.4675 8.81157 87.1892 8.92617 86.8618 8.92617C86.5016 8.92617 86.2069 8.7952 85.9941 8.54963C85.8795 8.43503 85.7813 8.30406 85.7158 8.15672C85.6503 8.00938 85.6176 7.86204 85.6176 7.7147V4.9807C85.6176 4.60416 85.7485 4.29311 86.0105 4.06391V4.08028C86.2233 3.86746 86.5016 3.75286 86.8454 3.75286ZM102.051 24.708V24.7244C103.704 24.7244 105.112 24.135 106.275 22.9727C107.437 21.8103 108.01 20.4024 108.01 18.7489C108.01 17.079 107.421 15.6875 106.275 14.5088C105.129 13.3464 103.737 12.757 102.051 12.757C100.397 12.757 98.9896 13.3464 97.8272 14.5088C96.6649 15.6711 96.0755 17.079 96.0755 18.7325C96.0755 20.386 96.6649 21.794 97.8272 22.9563C99.0223 24.135 100.43 24.708 102.051 24.708ZM110.482 18.7489V18.7816C110.482 21.09 109.647 23.0709 107.994 24.7244C106.357 26.3779 104.376 27.1801 102.051 27.1801C99.7426 27.1801 97.7781 26.3779 96.1246 24.7244C94.4711 23.0709 93.6362 21.1064 93.6362 18.7816C93.6362 16.4569 94.4711 14.4924 96.1246 12.8389C97.7781 11.1854 99.7426 10.3505 102.051 10.3505C103.655 10.3505 105.112 10.7597 106.438 11.5619C106.75 11.742 107.028 11.9385 107.29 12.1513C107.552 12.3641 107.797 12.5769 108.026 12.8061V4.94796C108.026 4.63691 108.157 4.34222 108.403 4.06391C108.649 3.83472 108.927 3.72012 109.254 3.72012C109.598 3.72012 109.893 3.83472 110.138 4.06391C110.368 4.29311 110.482 4.58779 110.482 4.93159V18.7489ZM125.18 24.5771C126.834 24.5771 128.242 24.0041 129.388 22.8417C130.55 21.6794 131.123 20.2878 131.123 18.667C131.123 17.0463 130.55 15.6384 129.388 14.4433C128.242 13.2973 126.834 12.7243 125.18 12.7243C123.543 12.7243 122.135 13.2809 120.989 14.4433C119.81 15.6384 119.254 17.0627 119.254 18.6507C119.254 20.2551 119.81 21.6466 120.989 22.8417C122.152 24.0041 123.543 24.5771 125.18 24.5771ZM133.546 25.8213L133.513 25.7885C133.513 26.1323 133.399 26.4106 133.169 26.6398C132.924 26.8854 132.646 27 132.318 27C131.958 27 131.663 26.8854 131.418 26.6726C131.205 26.427 131.09 26.1323 131.09 25.7885V24.5279C130.861 24.7408 130.599 24.97 130.304 25.1992C130.01 25.4284 129.748 25.6084 129.519 25.7558C128.864 26.1651 128.176 26.4761 127.456 26.6889C126.736 26.9018 125.982 27 125.18 27C122.872 27 120.907 26.1814 119.27 24.5443C117.633 22.8908 116.831 20.9263 116.831 18.6507C116.831 16.3751 117.633 14.4105 119.27 12.757C120.907 11.1035 122.872 10.3013 125.18 10.3013C127.489 10.3013 129.486 11.1035 131.107 12.757C132.744 14.4105 133.546 16.3751 133.546 18.6507V25.8213Z" fill="#5A5B5B"/>
<rect x="1" y="31.5342" width="138.327" height="1.71382" rx="0.85691" fill="#5392F9"/>
<rect x="7.13989" y="36.333" width="8.02541" height="1.05055" rx="0.525275" fill="#5392F9"/>
<rect x="14.8885" y="43.9492" width="8.02541" height="1.05055" rx="0.525275" fill="#5392F9"/>
<rect x="25.6812" y="43.9492" width="3.5976" height="1.05055" rx="0.525275" fill="#5392F9"/>
<rect x="17.1024" y="36.333" width="25.7367" height="1.05055" rx="0.525275" fill="#5392F9"/>
<rect x="11.0143" y="40.2725" width="25.7367" height="1.05055" rx="0.525275" fill="#5392F9"/>
</svg>
