<svg width="34" height="34" viewBox="0 0 34 34" fill="none" xmlns="http://www.w3.org/2000/svg">
<path d="M27.0419 10.2081C27.0419 10.666 26.873 11.1242 26.5351 11.4731L12.6982 25.7894C12.3617 26.1406 11.9185 26.314 11.4753 26.314C11.0321 26.314 10.59 26.1392 10.2527 25.7897L3.3342 18.6315C2.99639 18.2834 2.82721 17.8249 2.82721 17.3663C2.82721 16.344 3.63527 15.5767 4.55683 15.5767C4.99939 15.5767 5.44218 15.7515 5.77945 16.101L11.4753 21.9967L24.0907 8.94429C24.4258 8.59365 24.869 8.41861 25.3123 8.41861C26.2365 8.41861 27.0419 9.18475 27.0419 10.2081Z" fill="#667381"/>
</svg>
