<svg width="34" height="34" viewBox="0 0 34 34" fill="none" xmlns="http://www.w3.org/2000/svg">
<path d="M25.0557 24.2454L17.8451 17.0349L25.0557 9.82433C25.8342 9.04586 25.8342 7.79257 25.0557 7.01409C24.2772 6.23562 23.0239 6.23562 22.2454 7.01409L15.0349 14.2246L7.82433 7.01409C7.04586 6.23562 5.79257 6.23562 5.01409 7.01409C4.23562 7.79257 4.23562 9.04586 5.01409 9.82433L12.2246 17.0349L5.01409 24.2454C4.23562 25.0239 4.23562 26.2772 5.01409 27.0557C5.79257 27.8342 7.04586 27.8342 7.82433 27.0557L15.0349 19.8451L22.2454 27.0557C23.0239 27.8342 24.2772 27.8342 25.0557 27.0557C25.8286 26.2772 25.8286 25.0184 25.0557 24.2454Z" fill="#667381"/>
</svg>
