<svg width="40" height="40" viewBox="0 0 40 40" fill="none" xmlns="http://www.w3.org/2000/svg">
<path d="M34.4449 11.2904C34.4449 11.8431 34.2411 12.3961 33.8333 12.8173L17.1319 30.0973C16.7257 30.5212 16.1908 30.7304 15.6558 30.7304C15.1208 30.7304 14.5872 30.5195 14.1801 30.0976L5.82936 21.4576C5.42161 21.0374 5.21741 20.4839 5.21741 19.9304C5.21741 18.6965 6.19275 17.7704 7.30509 17.7704C7.83927 17.7704 8.37372 17.9813 8.78082 18.4032L15.6558 25.5194L30.8828 9.7649C31.2873 9.34168 31.8223 9.1304 32.3572 9.1304C33.4729 9.1304 34.4449 10.0552 34.4449 11.2904Z" fill="white"/>
</svg>
