<svg width="32" height="32" viewBox="0 0 32 32" fill="none" xmlns="http://www.w3.org/2000/svg">
<path d="M17.2553 3.6497L19.6323 9.3647C19.898 10.0034 20.4986 10.4398 21.1881 10.495L27.3579 10.9897C28.5634 11.0863 29.0522 12.5907 28.1337 13.3774L23.433 17.4041C22.9077 17.8541 22.6782 18.5602 22.8387 19.2331L24.2749 25.2537C24.5555 26.4301 23.2758 27.3598 22.2438 26.7295L16.9615 23.5031C16.3712 23.1425 15.6288 23.1425 15.0385 23.5031L9.75625 26.7295C8.7242 27.3598 7.44451 26.4301 7.72511 25.2537L9.16126 19.2331C9.32176 18.5602 9.09234 17.8541 8.56701 17.4041L3.86626 13.3774C2.94782 12.5907 3.43662 11.0863 4.64208 10.9897L10.8119 10.495C11.5014 10.4398 12.102 10.0034 12.3677 9.3647L14.7447 3.64971C15.2091 2.5331 16.7909 2.5331 17.2553 3.6497Z" fill="url(#paint0_linear_67_19)" stroke="#E4E4E4" stroke-width="0.485082"/>
<defs>
<linearGradient id="paint0_linear_67_19" x1="16" y1="0" x2="16" y2="32" gradientUnits="userSpaceOnUse">
<stop stop-color="#F5CB3F"/>
<stop offset="1" stop-color="#DB9310"/>
</linearGradient>
</defs>
</svg>
