<svg width="263" height="252" viewBox="0 0 263 252" fill="none" xmlns="http://www.w3.org/2000/svg">
<circle cx="132" cy="126" r="126" fill="#DDEBFF"/>
<g filter="url(#filter0_dd_142_1918)">
<rect x="7" y="53" width="249" height="146" rx="8" fill="white"/>
</g>
<path d="M43.712 68.896V71.464H45.176C46.04 71.464 46.832 71.272 46.832 70.18C46.832 69.088 46.04 68.896 45.176 68.896H43.712ZM41.828 76V67.432H45.692C47.84 67.432 48.656 68.788 48.656 70.18C48.656 71.572 47.84 72.928 45.692 72.928H43.712V76H41.828ZM49.6519 76V69.796H51.2719V70.948H51.2959C51.6199 70.168 52.4239 69.628 53.2759 69.628C53.4079 69.628 53.5279 69.652 53.6479 69.688V71.272C53.4919 71.236 53.2399 71.212 53.0359 71.212C51.7759 71.212 51.3559 72.1 51.3559 73.204V76H49.6519ZM55.828 72.904C55.828 73.9 56.176 74.884 57.328 74.884C58.492 74.884 58.84 73.9 58.84 72.904C58.84 71.908 58.492 70.912 57.328 70.912C56.176 70.912 55.828 71.908 55.828 72.904ZM54.124 72.904C54.124 70.924 55.384 69.628 57.328 69.628C59.284 69.628 60.544 70.924 60.544 72.904C60.544 74.872 59.284 76.168 57.328 76.168C55.384 76.168 54.124 74.872 54.124 72.904ZM61.6999 76V69.796H63.3079V70.636H63.3319C63.7759 70 64.4119 69.628 65.2279 69.628C66.0079 69.628 66.7039 69.904 67.0399 70.66C67.4119 70.12 68.0479 69.628 68.9119 69.628C70.2319 69.628 71.1799 70.24 71.1799 71.848V76H69.4759V72.484C69.4759 71.656 69.4039 70.972 68.4319 70.972C67.4719 70.972 67.2919 71.776 67.2919 72.544V76H65.5879V72.52C65.5879 71.8 65.6359 70.972 64.5559 70.972C64.2199 70.972 63.4039 71.188 63.4039 72.4V76H61.6999ZM74.0389 72.904C74.0389 73.9 74.3869 74.884 75.5389 74.884C76.7029 74.884 77.0509 73.9 77.0509 72.904C77.0509 71.908 76.7029 70.912 75.5389 70.912C74.3869 70.912 74.0389 71.908 74.0389 72.904ZM72.3349 72.904C72.3349 70.924 73.5949 69.628 75.5389 69.628C77.4949 69.628 78.7549 70.924 78.7549 72.904C78.7549 74.872 77.4949 76.168 75.5389 76.168C73.5949 76.168 72.3349 74.872 72.3349 72.904ZM82.0228 67.936V69.796H83.2708V70.936H82.0228V74.008C82.0228 74.584 82.1668 74.728 82.7428 74.728C82.9348 74.728 83.1148 74.716 83.2708 74.68V76.012C82.9828 76.06 82.6108 76.072 82.2748 76.072C81.2188 76.072 80.3188 75.844 80.3188 74.596V70.936H79.2868V69.796H80.3188V67.936H82.0228ZM85.8336 67.432V68.836H84.1296V67.432H85.8336ZM84.1296 76V69.796H85.8336V76H84.1296ZM88.6873 72.904C88.6873 73.9 89.0353 74.884 90.1873 74.884C91.3513 74.884 91.6993 73.9 91.6993 72.904C91.6993 71.908 91.3513 70.912 90.1873 70.912C89.0353 70.912 88.6873 71.908 88.6873 72.904ZM86.9833 72.904C86.9833 70.924 88.2433 69.628 90.1873 69.628C92.1433 69.628 93.4033 70.924 93.4033 72.904C93.4033 74.872 92.1433 76.168 90.1873 76.168C88.2433 76.168 86.9833 74.872 86.9833 72.904ZM94.5113 76V69.796H96.1313V70.66H96.1673C96.5993 69.952 97.3433 69.628 98.0633 69.628C99.8753 69.628 100.331 70.648 100.331 72.184V76H98.6273V72.496C98.6273 71.476 98.3393 70.972 97.5353 70.972C96.6113 70.972 96.2153 71.488 96.2153 72.748V76H94.5113ZM110.58 76L109.884 75.148C109.2 75.82 108.444 76.168 107.472 76.168C105.924 76.168 104.7 75.22 104.7 73.6C104.7 72.4 105.612 71.584 106.62 71.116C106.152 70.552 105.804 70.048 105.804 69.292C105.804 68.104 106.884 67.336 108.036 67.336C109.332 67.336 110.388 68.044 110.388 69.388C110.388 70.396 109.728 71.056 108.864 71.524L109.968 72.88C110.148 72.556 110.232 72.208 110.28 71.86H111.756C111.672 72.628 111.408 73.36 110.928 73.972L112.668 76H110.58ZM108.984 74.008L107.52 72.22C106.908 72.472 106.32 72.94 106.32 73.636C106.32 74.26 106.908 74.764 107.544 74.764C108.156 74.764 108.588 74.452 108.984 74.008ZM108.9 69.292C108.9 68.848 108.54 68.476 108.12 68.476C107.7 68.476 107.352 68.788 107.352 69.232C107.352 69.772 107.7 70.12 108.024 70.516C108.504 70.216 108.9 69.916 108.9 69.292ZM118.583 69.016V74.416H120.263C121.355 74.416 122.399 73.744 122.399 71.848C122.399 70.12 121.787 69.016 119.927 69.016H118.583ZM116.699 76V67.432H120.395C122.615 67.432 124.283 68.836 124.283 71.668C124.283 74.152 123.011 76 120.395 76H116.699ZM127.166 67.432V68.836H125.462V67.432H127.166ZM125.462 76V69.796H127.166V76H125.462ZM128.207 73.984H129.827C129.827 74.716 130.475 75.028 131.135 75.028C131.615 75.028 132.251 74.836 132.251 74.236C132.251 73.72 131.531 73.528 130.319 73.276C129.323 73.048 128.351 72.724 128.351 71.62C128.351 70.036 129.719 69.628 131.051 69.628C132.395 69.628 133.655 70.084 133.787 71.608H132.167C132.119 70.948 131.615 70.768 131.003 70.768C130.619 70.768 130.055 70.828 130.055 71.344C130.055 71.956 131.027 72.04 131.987 72.268C132.983 72.496 133.955 72.856 133.955 74.008C133.955 75.64 132.527 76.168 131.123 76.168C129.683 76.168 128.267 75.628 128.207 73.984ZM140.845 71.98H139.177C139.069 71.272 138.649 70.912 137.917 70.912C136.825 70.912 136.465 72.016 136.465 72.928C136.465 73.828 136.813 74.884 137.881 74.884C138.685 74.884 139.129 74.392 139.237 73.624H140.881C140.653 75.268 139.537 76.168 137.893 76.168C136.021 76.168 134.761 74.848 134.761 72.988C134.761 71.056 135.913 69.628 137.929 69.628C139.393 69.628 140.749 70.396 140.845 71.98ZM143.355 72.904C143.355 73.9 143.703 74.884 144.855 74.884C146.019 74.884 146.367 73.9 146.367 72.904C146.367 71.908 146.019 70.912 144.855 70.912C143.703 70.912 143.355 71.908 143.355 72.904ZM141.651 72.904C141.651 70.924 142.911 69.628 144.855 69.628C146.811 69.628 148.071 70.924 148.071 72.904C148.071 74.872 146.811 76.168 144.855 76.168C142.911 76.168 141.651 74.872 141.651 72.904ZM154.999 69.796V76H153.379V75.136H153.343C152.911 75.844 152.167 76.168 151.447 76.168C149.635 76.168 149.179 75.148 149.179 73.612V69.796H150.883V73.3C150.883 74.32 151.171 74.824 151.975 74.824C152.899 74.824 153.295 74.308 153.295 73.048V69.796H154.999ZM156.293 76V69.796H157.913V70.66H157.949C158.381 69.952 159.125 69.628 159.845 69.628C161.657 69.628 162.113 70.648 162.113 72.184V76H160.409V72.496C160.409 71.476 160.121 70.972 159.317 70.972C158.393 70.972 157.997 71.488 157.997 72.748V76H156.293ZM165.566 67.936V69.796H166.814V70.936H165.566V74.008C165.566 74.584 165.71 74.728 166.286 74.728C166.478 74.728 166.658 74.716 166.814 74.68V76.012C166.526 76.06 166.154 76.072 165.818 76.072C164.762 76.072 163.862 75.844 163.862 74.596V70.936H162.83V69.796H163.862V67.936H165.566Z" fill="#F67E28"/>
<path d="M41.8594 94V86.8223H46.8301V87.252V87.6816H42.8311V89.874H46.332V90.3037V90.7334H42.8311V94H42.3477H41.8594ZM47.8848 94V88.7754H48.2998H48.7197V89.6689C48.7946 89.529 48.8743 89.402 48.959 89.2881C49.291 88.8421 49.6995 88.6191 50.1846 88.6191C50.266 88.6191 50.349 88.6338 50.4336 88.6631V89.5615L50.2529 89.5566C49.7777 89.5566 49.4098 89.6999 49.1494 89.9863C48.8923 90.2695 48.7637 90.6748 48.7637 91.2021V94H48.3242H47.8848ZM53.2217 94.1416C52.499 94.1416 51.9131 93.8877 51.4639 93.3799C51.0179 92.8721 50.7949 92.2064 50.7949 91.3828C50.7949 90.556 51.0179 89.8887 51.4639 89.3809C51.9131 88.873 52.499 88.6191 53.2217 88.6191C53.9508 88.6191 54.5384 88.873 54.9844 89.3809C55.4303 89.8887 55.6533 90.556 55.6533 91.3828C55.6533 92.2064 55.4303 92.8721 54.9844 93.3799C54.5384 93.8877 53.9508 94.1416 53.2217 94.1416ZM53.2217 93.3848C53.6839 93.3848 54.0518 93.2041 54.3252 92.8428C54.5986 92.4814 54.7354 91.9948 54.7354 91.3828C54.7354 90.7708 54.5986 90.2842 54.3252 89.9229C54.0518 89.5583 53.6839 89.376 53.2217 89.376C52.7594 89.376 52.3916 89.5583 52.1182 89.9229C51.848 90.2842 51.7129 90.7708 51.7129 91.3828C51.7129 91.9948 51.848 92.4814 52.1182 92.8428C52.3916 93.2041 52.7594 93.3848 53.2217 93.3848ZM56.6592 94V88.7754H57.0742H57.4941V89.5518L57.6748 89.3174C58.0687 88.8519 58.5391 88.6191 59.0859 88.6191C59.5547 88.6191 59.9274 88.7575 60.2041 89.0342C60.3278 89.1579 60.4238 89.2995 60.4922 89.459L60.6338 89.2783C61.0114 88.8389 61.4622 88.6191 61.9863 88.6191C62.5332 88.6191 62.9548 88.7689 63.251 89.0684C63.5505 89.3646 63.7002 89.7861 63.7002 90.333V94H63.2607H62.8213V90.6309C62.8213 90.2337 62.7399 89.9326 62.5771 89.7275C62.4144 89.5225 62.1768 89.4199 61.8643 89.4199C61.4834 89.4199 61.1807 89.568 60.9561 89.8643C60.7314 90.1605 60.6191 90.5609 60.6191 91.0654V94H60.1797H59.7402V90.4209C59.7402 90.0954 59.6654 89.848 59.5156 89.6787C59.3691 89.5062 59.1543 89.4199 58.8711 89.4199C58.4805 89.4199 58.1598 89.5859 57.9092 89.918C57.6618 90.25 57.5381 90.6781 57.5381 91.2021V94H57.0986H56.6592ZM72.0107 88.7754L70.0234 94.1709C69.7174 94.9749 69.444 95.5007 69.2031 95.748C68.9655 95.9954 68.6074 96.1191 68.1289 96.1191C67.9727 96.1224 67.8311 96.1045 67.7041 96.0654V95.25C67.8376 95.2988 68.0052 95.3249 68.207 95.3281C68.4056 95.3281 68.5716 95.2467 68.7051 95.084C68.8385 94.9212 68.9899 94.6169 69.1592 94.1709L69.1738 94.0879L67.2354 88.7754H67.7334H68.2363L69.6328 93.0967L71.0488 88.7754H71.5273H72.0107ZM74.9014 94.1416C74.1787 94.1416 73.5928 93.8877 73.1436 93.3799C72.6976 92.8721 72.4746 92.2064 72.4746 91.3828C72.4746 90.556 72.6976 89.8887 73.1436 89.3809C73.5928 88.873 74.1787 88.6191 74.9014 88.6191C75.6305 88.6191 76.2181 88.873 76.6641 89.3809C77.11 89.8887 77.333 90.556 77.333 91.3828C77.333 92.2064 77.11 92.8721 76.6641 93.3799C76.2181 93.8877 75.6305 94.1416 74.9014 94.1416ZM74.9014 93.3848C75.3636 93.3848 75.7314 93.2041 76.0049 92.8428C76.2783 92.4814 76.415 91.9948 76.415 91.3828C76.415 90.7708 76.2783 90.2842 76.0049 89.9229C75.7314 89.5583 75.3636 89.376 74.9014 89.376C74.4391 89.376 74.0713 89.5583 73.7979 89.9229C73.5277 90.2842 73.3926 90.7708 73.3926 91.3828C73.3926 91.9948 73.5277 92.4814 73.7979 92.8428C74.0713 93.2041 74.4391 93.3848 74.9014 93.3848ZM79.2471 88.7754V92.1445C79.2471 92.584 79.3317 92.9014 79.501 93.0967C79.6702 93.2887 79.9453 93.3848 80.3262 93.3848C80.7493 93.3848 81.0846 93.222 81.332 92.8965C81.5794 92.5677 81.7031 92.1234 81.7031 91.5635V88.7754H82.1426H82.582V94H82.167H81.7471V93.2041C81.6885 93.2985 81.6234 93.388 81.5518 93.4727C81.1774 93.9186 80.7087 94.1416 80.1455 94.1416C79.5531 94.1416 79.1087 93.9935 78.8125 93.6973C78.5163 93.401 78.3682 92.9567 78.3682 92.3643V88.7754H78.8076H79.2471ZM84.0273 94V88.7754H84.4424H84.8623V89.6689C84.9372 89.529 85.0169 89.402 85.1016 89.2881C85.4336 88.8421 85.8421 88.6191 86.3271 88.6191C86.4085 88.6191 86.4915 88.6338 86.5762 88.6631V89.5615L86.3955 89.5566C85.9202 89.5566 85.5524 89.6999 85.292 89.9863C85.0348 90.2695 84.9062 90.6748 84.9062 91.2021V94H84.4668H84.0273ZM90.9951 94L89.5107 88.7754H89.9941H90.4775L91.4785 92.9355L92.499 88.7754H92.9873H93.4756L94.5254 92.9648L95.585 88.7754H96.0195H96.459L94.9795 94H94.5107H94.0371L92.958 89.918L91.9375 94H91.4688H90.9951ZM98.6221 94.1416C98.111 94.1416 97.7057 94.0049 97.4062 93.7314C97.1068 93.458 96.957 93.0885 96.957 92.623C96.957 92.1543 97.097 91.7816 97.377 91.5049C97.6602 91.2282 98.0719 91.0557 98.6123 90.9873L99.8086 90.8359C99.9062 90.8262 99.999 90.8099 100.087 90.7871C100.201 90.7578 100.289 90.6992 100.351 90.6113C100.412 90.5234 100.443 90.4128 100.443 90.2793V90.2354C100.443 89.9554 100.338 89.7373 100.126 89.5811C99.9144 89.4215 99.6198 89.3418 99.2422 89.3418C98.8809 89.3418 98.5977 89.4264 98.3926 89.5957C98.1908 89.7617 98.0687 90.0107 98.0264 90.3428H97.2158C97.2581 89.7699 97.46 89.3402 97.8213 89.0537C98.1826 88.764 98.7002 88.6191 99.374 88.6191C100.009 88.6191 100.492 88.7575 100.824 89.0342C101.156 89.3076 101.322 89.708 101.322 90.2354V93.1064C101.322 93.1943 101.348 93.266 101.4 93.3213C101.456 93.3734 101.529 93.3994 101.62 93.3994C101.646 93.3994 101.684 93.3962 101.732 93.3896C101.785 93.3831 101.84 93.3734 101.898 93.3604V93.9951C101.814 94.0277 101.724 94.0537 101.63 94.0732C101.535 94.0928 101.456 94.1025 101.391 94.1025C101.059 94.1025 100.818 94.0114 100.668 93.8291C100.57 93.7087 100.5 93.5378 100.458 93.3164C100.393 93.3978 100.318 93.4759 100.233 93.5508C99.7939 93.9447 99.2568 94.1416 98.6221 94.1416ZM100.443 91.9297V91.3633C100.281 91.4414 100.1 91.4951 99.9014 91.5244L99.0957 91.6416C98.6725 91.7002 98.3633 91.7995 98.168 91.9395C97.9727 92.0762 97.875 92.2633 97.875 92.501C97.875 92.7939 97.9548 93.0202 98.1143 93.1797C98.2738 93.3359 98.5 93.4141 98.793 93.4141C99.2552 93.4141 99.6458 93.2887 99.9648 93.0381C100.183 92.8623 100.328 92.6637 100.399 92.4424C100.412 92.4001 100.422 92.3333 100.429 92.2422C100.438 92.1478 100.443 92.0436 100.443 91.9297ZM102.831 94V86.8223H103.271H103.71V94H103.271H102.831ZM105.058 94V86.8223H105.497H105.937V94H105.497H105.058ZM109.394 94.1416C108.655 94.1416 108.074 93.9072 107.65 93.4385C107.227 92.9697 107.016 92.3219 107.016 91.4951C107.016 90.6162 107.239 89.918 107.685 89.4004C108.134 88.8796 108.736 88.6191 109.491 88.6191C110.175 88.6191 110.727 88.873 111.146 89.3809C111.566 89.8887 111.776 90.556 111.776 91.3828L111.767 91.6953H107.948C107.984 92.2161 108.103 92.6133 108.305 92.8867C108.552 93.2188 108.943 93.3848 109.477 93.3848C109.812 93.3848 110.105 93.2904 110.355 93.1016C110.606 92.9128 110.759 92.6719 110.814 92.3789H111.684C111.553 92.9518 111.293 93.3896 110.902 93.6924C110.512 93.9919 110.009 94.1416 109.394 94.1416ZM110.858 90.9873C110.832 90.5023 110.712 90.1247 110.497 89.8545C110.259 89.555 109.911 89.4053 109.452 89.4053C108.99 89.4053 108.62 89.5778 108.344 89.9229C108.126 90.193 107.994 90.5479 107.948 90.9873H110.858ZM114.75 93.9951C114.451 94.0407 114.232 94.0635 114.096 94.0635C113.712 94.0635 113.44 93.9788 113.28 93.8096C113.124 93.6403 113.046 93.349 113.046 92.9355V89.4932H112.323V88.7754H113.046V87.3105H113.925V88.7754H114.75V89.4932H113.925V92.9355C113.925 93.0527 113.97 93.1455 114.062 93.2139C114.156 93.2822 114.281 93.3164 114.438 93.3164H114.75V93.9951ZM117.533 93.9951C117.234 94.0407 117.016 94.0635 116.879 94.0635C116.495 94.0635 116.223 93.9788 116.063 93.8096C115.907 93.6403 115.829 93.349 115.829 92.9355V89.4932H115.106V88.7754H115.829V87.3105H116.708V88.7754H117.533V89.4932H116.708V92.9355C116.708 93.0527 116.754 93.1455 116.845 93.2139C116.939 93.2822 117.064 93.3164 117.221 93.3164H117.533V93.9951Z" fill="#3B3B3B"/>
<path d="M41.8594 130V122.822H47.1084V123.252V123.682H42.8311V125.874H46.7373V126.304V126.733H42.8311V129.141H47.1621V129.57V130H41.8594ZM48.3193 130V124.775H48.7344H49.1543V125.547L49.3496 125.288C49.7305 124.842 50.2074 124.619 50.7803 124.619C51.3564 124.619 51.8008 124.775 52.1133 125.088C52.4258 125.4 52.582 125.845 52.582 126.421V130H52.1426H51.7031V126.719C51.7031 126.26 51.6136 125.929 51.4346 125.728C51.2588 125.522 50.9723 125.42 50.5752 125.42C50.152 125.42 49.8167 125.581 49.5693 125.903C49.3219 126.222 49.1982 126.655 49.1982 127.202V130H48.7588H48.3193ZM55.8047 129.995C55.5052 130.041 55.2871 130.063 55.1504 130.063C54.7663 130.063 54.4945 129.979 54.335 129.81C54.1787 129.64 54.1006 129.349 54.1006 128.936V125.493H53.3779V124.775H54.1006V123.311H54.9795V124.775H55.8047V125.493H54.9795V128.936C54.9795 129.053 55.0251 129.146 55.1162 129.214C55.2106 129.282 55.3359 129.316 55.4922 129.316H55.8047V129.995ZM58.7979 130.142C58.0589 130.142 57.4779 129.907 57.0547 129.438C56.6315 128.97 56.4199 128.322 56.4199 127.495C56.4199 126.616 56.6429 125.918 57.0889 125.4C57.5381 124.88 58.1403 124.619 58.8955 124.619C59.5791 124.619 60.1309 124.873 60.5508 125.381C60.9707 125.889 61.1807 126.556 61.1807 127.383L61.1709 127.695H57.3525C57.3883 128.216 57.5072 128.613 57.709 128.887C57.9564 129.219 58.347 129.385 58.8809 129.385C59.2161 129.385 59.5091 129.29 59.7598 129.102C60.0104 128.913 60.1634 128.672 60.2188 128.379H61.0879C60.9577 128.952 60.6973 129.39 60.3066 129.692C59.916 129.992 59.4131 130.142 58.7979 130.142ZM60.2627 126.987C60.2367 126.502 60.1162 126.125 59.9014 125.854C59.6637 125.555 59.3154 125.405 58.8564 125.405C58.3942 125.405 58.0247 125.578 57.748 125.923C57.5299 126.193 57.3981 126.548 57.3525 126.987H60.2627ZM62.3574 130V124.775H62.7725H63.1924V125.669C63.2673 125.529 63.347 125.402 63.4316 125.288C63.7637 124.842 64.1722 124.619 64.6572 124.619C64.7386 124.619 64.8216 124.634 64.9062 124.663V125.562L64.7256 125.557C64.2503 125.557 63.8825 125.7 63.6221 125.986C63.3649 126.27 63.2363 126.675 63.2363 127.202V130H62.7969H62.3574ZM69.7256 130.142C69.2145 130.142 68.8092 130.005 68.5098 129.731C68.2103 129.458 68.0605 129.089 68.0605 128.623C68.0605 128.154 68.2005 127.782 68.4805 127.505C68.7637 127.228 69.1755 127.056 69.7158 126.987L70.9121 126.836C71.0098 126.826 71.1025 126.81 71.1904 126.787C71.3044 126.758 71.3923 126.699 71.4541 126.611C71.516 126.523 71.5469 126.413 71.5469 126.279V126.235C71.5469 125.955 71.4411 125.737 71.2295 125.581C71.0179 125.422 70.7233 125.342 70.3457 125.342C69.9844 125.342 69.7012 125.426 69.4961 125.596C69.2943 125.762 69.1722 126.011 69.1299 126.343H68.3193C68.3617 125.77 68.5635 125.34 68.9248 125.054C69.2861 124.764 69.8037 124.619 70.4775 124.619C71.1123 124.619 71.5957 124.757 71.9277 125.034C72.2598 125.308 72.4258 125.708 72.4258 126.235V129.106C72.4258 129.194 72.4518 129.266 72.5039 129.321C72.5592 129.373 72.6325 129.399 72.7236 129.399C72.7497 129.399 72.7871 129.396 72.8359 129.39C72.888 129.383 72.9434 129.373 73.002 129.36V129.995C72.9173 130.028 72.8278 130.054 72.7334 130.073C72.639 130.093 72.5592 130.103 72.4941 130.103C72.1621 130.103 71.9212 130.011 71.7715 129.829C71.6738 129.709 71.6038 129.538 71.5615 129.316C71.4964 129.398 71.4215 129.476 71.3369 129.551C70.8975 129.945 70.3604 130.142 69.7256 130.142ZM71.5469 127.93V127.363C71.3841 127.441 71.2035 127.495 71.0049 127.524L70.1992 127.642C69.776 127.7 69.4668 127.799 69.2715 127.939C69.0762 128.076 68.9785 128.263 68.9785 128.501C68.9785 128.794 69.0583 129.02 69.2178 129.18C69.3773 129.336 69.6035 129.414 69.8965 129.414C70.3587 129.414 70.7493 129.289 71.0684 129.038C71.2865 128.862 71.4313 128.664 71.5029 128.442C71.516 128.4 71.5257 128.333 71.5322 128.242C71.542 128.148 71.5469 128.044 71.5469 127.93ZM76.6299 124.775H77.0449H77.4648V125.518L77.5088 125.454C77.8864 124.897 78.3828 124.619 78.998 124.619C79.6816 124.619 80.222 124.855 80.6191 125.327C81.0195 125.796 81.2197 126.431 81.2197 127.231C81.2197 128.14 81.0179 128.853 80.6143 129.37C80.2139 129.884 79.6572 130.142 78.9443 130.142C78.3551 130.142 77.8864 129.915 77.5381 129.463L77.5088 129.424V132.065H77.0693H76.6299V124.775ZM78.9004 129.38C79.3594 129.38 79.7077 129.207 79.9453 128.862C80.1829 128.514 80.3018 128.008 80.3018 127.344C80.3018 126.689 80.1878 126.206 79.96 125.894C79.7321 125.578 79.3805 125.42 78.9053 125.42C78.4202 125.42 78.0654 125.597 77.8408 125.952C77.6195 126.307 77.5088 126.868 77.5088 127.637C77.5088 128.193 77.6292 128.623 77.8701 128.926C78.111 129.229 78.4544 129.38 78.9004 129.38ZM82.3867 130V124.775H82.8018H83.2217V125.669C83.2965 125.529 83.3763 125.402 83.4609 125.288C83.793 124.842 84.2015 124.619 84.6865 124.619C84.7679 124.619 84.8509 124.634 84.9355 124.663V125.562L84.7549 125.557C84.2796 125.557 83.9118 125.7 83.6514 125.986C83.3942 126.27 83.2656 126.675 83.2656 127.202V130H82.8262H82.3867ZM87.7236 130.142C87.001 130.142 86.415 129.888 85.9658 129.38C85.5199 128.872 85.2969 128.206 85.2969 127.383C85.2969 126.556 85.5199 125.889 85.9658 125.381C86.415 124.873 87.001 124.619 87.7236 124.619C88.4528 124.619 89.0404 124.873 89.4863 125.381C89.9323 125.889 90.1553 126.556 90.1553 127.383C90.1553 128.206 89.9323 128.872 89.4863 129.38C89.0404 129.888 88.4528 130.142 87.7236 130.142ZM87.7236 129.385C88.1859 129.385 88.5537 129.204 88.8271 128.843C89.1006 128.481 89.2373 127.995 89.2373 127.383C89.2373 126.771 89.1006 126.284 88.8271 125.923C88.5537 125.558 88.1859 125.376 87.7236 125.376C87.2614 125.376 86.8936 125.558 86.6201 125.923C86.3499 126.284 86.2148 126.771 86.2148 127.383C86.2148 127.995 86.3499 128.481 86.6201 128.843C86.8936 129.204 87.2614 129.385 87.7236 129.385ZM91.1611 130V124.775H91.5762H91.9961V125.552L92.1768 125.317C92.5706 124.852 93.041 124.619 93.5879 124.619C94.0566 124.619 94.4294 124.757 94.7061 125.034C94.8298 125.158 94.9258 125.299 94.9941 125.459L95.1357 125.278C95.5133 124.839 95.9642 124.619 96.4883 124.619C97.0352 124.619 97.4567 124.769 97.7529 125.068C98.0524 125.365 98.2021 125.786 98.2021 126.333V130H97.7627H97.3232V126.631C97.3232 126.234 97.2419 125.933 97.0791 125.728C96.9163 125.522 96.6787 125.42 96.3662 125.42C95.9854 125.42 95.6826 125.568 95.458 125.864C95.2334 126.16 95.1211 126.561 95.1211 127.065V130H94.6816H94.2422V126.421C94.2422 126.095 94.1673 125.848 94.0176 125.679C93.8711 125.506 93.6562 125.42 93.373 125.42C92.9824 125.42 92.6618 125.586 92.4111 125.918C92.1637 126.25 92.04 126.678 92.04 127.202V130H91.6006H91.1611ZM101.62 130.142C100.897 130.142 100.312 129.888 99.8623 129.38C99.4163 128.872 99.1934 128.206 99.1934 127.383C99.1934 126.556 99.4163 125.889 99.8623 125.381C100.312 124.873 100.897 124.619 101.62 124.619C102.349 124.619 102.937 124.873 103.383 125.381C103.829 125.889 104.052 126.556 104.052 127.383C104.052 128.206 103.829 128.872 103.383 129.38C102.937 129.888 102.349 130.142 101.62 130.142ZM101.62 129.385C102.082 129.385 102.45 129.204 102.724 128.843C102.997 128.481 103.134 127.995 103.134 127.383C103.134 126.771 102.997 126.284 102.724 125.923C102.45 125.558 102.082 125.376 101.62 125.376C101.158 125.376 100.79 125.558 100.517 125.923C100.246 126.284 100.111 126.771 100.111 127.383C100.111 127.995 100.246 128.481 100.517 128.843C100.79 129.204 101.158 129.385 101.62 129.385ZM111.962 128.12C111.871 128.778 111.638 129.279 111.264 129.624C110.889 129.969 110.391 130.142 109.77 130.142C109.076 130.142 108.523 129.893 108.109 129.395C107.696 128.896 107.489 128.226 107.489 127.383C107.489 126.54 107.702 125.869 108.129 125.371C108.559 124.87 109.135 124.619 109.857 124.619C110.486 124.619 110.987 124.792 111.361 125.137C111.736 125.479 111.936 125.951 111.962 126.553H111.117C111.081 126.178 110.951 125.889 110.727 125.684C110.502 125.479 110.202 125.376 109.828 125.376C109.385 125.376 109.037 125.555 108.783 125.913C108.533 126.268 108.407 126.758 108.407 127.383C108.407 128.047 108.524 128.547 108.759 128.882C108.993 129.217 109.341 129.385 109.804 129.385C110.146 129.385 110.43 129.276 110.658 129.058C110.889 128.836 111.042 128.524 111.117 128.12H111.962ZM114.97 130.142C114.247 130.142 113.661 129.888 113.212 129.38C112.766 128.872 112.543 128.206 112.543 127.383C112.543 126.556 112.766 125.889 113.212 125.381C113.661 124.873 114.247 124.619 114.97 124.619C115.699 124.619 116.286 124.873 116.732 125.381C117.178 125.889 117.401 126.556 117.401 127.383C117.401 128.206 117.178 128.872 116.732 129.38C116.286 129.888 115.699 130.142 114.97 130.142ZM114.97 129.385C115.432 129.385 115.8 129.204 116.073 128.843C116.347 128.481 116.483 127.995 116.483 127.383C116.483 126.771 116.347 126.284 116.073 125.923C115.8 125.558 115.432 125.376 114.97 125.376C114.507 125.376 114.14 125.558 113.866 125.923C113.596 126.284 113.461 126.771 113.461 127.383C113.461 127.995 113.596 128.481 113.866 128.843C114.14 129.204 114.507 129.385 114.97 129.385ZM120.399 130.142C119.7 130.142 119.143 129.881 118.729 129.36C118.316 128.836 118.109 128.13 118.109 127.241C118.109 126.457 118.31 125.824 118.71 125.342C119.11 124.86 119.633 124.619 120.277 124.619C120.919 124.619 121.426 124.891 121.801 125.435L121.869 125.532V122.822H122.309H122.748V130H122.343H121.933V129.287L121.82 129.448C121.459 129.91 120.985 130.142 120.399 130.142ZM120.448 125.41C119.957 125.41 119.597 125.568 119.369 125.884C119.141 126.196 119.027 126.694 119.027 127.378C119.027 128.022 119.149 128.519 119.394 128.867C119.641 129.215 119.993 129.39 120.448 129.39C120.875 129.39 121.218 129.23 121.479 128.911C121.739 128.589 121.869 128.164 121.869 127.637C121.869 126.924 121.745 126.375 121.498 125.991C121.254 125.604 120.904 125.41 120.448 125.41ZM126.103 130.142C125.364 130.142 124.783 129.907 124.359 129.438C123.936 128.97 123.725 128.322 123.725 127.495C123.725 126.616 123.948 125.918 124.394 125.4C124.843 124.88 125.445 124.619 126.2 124.619C126.884 124.619 127.436 124.873 127.855 125.381C128.275 125.889 128.485 126.556 128.485 127.383L128.476 127.695H124.657C124.693 128.216 124.812 128.613 125.014 128.887C125.261 129.219 125.652 129.385 126.186 129.385C126.521 129.385 126.814 129.29 127.064 129.102C127.315 128.913 127.468 128.672 127.523 128.379H128.393C128.262 128.952 128.002 129.39 127.611 129.692C127.221 129.992 126.718 130.142 126.103 130.142ZM127.567 126.987C127.541 126.502 127.421 126.125 127.206 125.854C126.968 125.555 126.62 125.405 126.161 125.405C125.699 125.405 125.329 125.578 125.053 125.923C124.835 126.193 124.703 126.548 124.657 126.987H127.567Z" fill="#3B3B3B"/>
<path d="M43.54 170V167.22L40.91 162.86H42.68L44.35 165.68L46.01 162.86H47.76L45.11 167.26V170H43.54ZM49.4699 167.42C49.4699 168.25 49.7599 169.07 50.7199 169.07C51.6899 169.07 51.9799 168.25 51.9799 167.42C51.9799 166.59 51.6899 165.76 50.7199 165.76C49.7599 165.76 49.4699 166.59 49.4699 167.42ZM48.0499 167.42C48.0499 165.77 49.0999 164.69 50.7199 164.69C52.3499 164.69 53.3999 165.77 53.3999 167.42C53.3999 169.06 52.3499 170.14 50.7199 170.14C49.0999 170.14 48.0499 169.06 48.0499 167.42ZM59.1732 164.83V170H57.8232V169.28H57.7932C57.4332 169.87 56.8132 170.14 56.2132 170.14C54.7032 170.14 54.3232 169.29 54.3232 168.01V164.83H55.7432V167.75C55.7432 168.6 55.9832 169.02 56.6532 169.02C57.4232 169.02 57.7532 168.59 57.7532 167.54V164.83H59.1732ZM60.2509 170V164.83H61.6009V165.79H61.6209C61.8909 165.14 62.5609 164.69 63.2709 164.69C63.3809 164.69 63.4809 164.71 63.5809 164.74V166.06C63.4509 166.03 63.2409 166.01 63.0709 166.01C62.0209 166.01 61.6709 166.75 61.6709 167.67V170H60.2509ZM69.5309 169.07C70.4609 169.07 70.7609 168.27 70.7609 167.43C70.7609 166.6 70.4309 165.76 69.5209 165.76C68.5909 165.76 68.2909 166.59 68.2909 167.43C68.2909 168.27 68.6109 169.07 69.5309 169.07ZM66.9209 171.82V164.83H68.2709V165.49H68.2909C68.6409 164.93 69.1909 164.69 69.8309 164.69C71.4509 164.69 72.1809 166 72.1809 167.47C72.1809 168.85 71.4309 170.14 69.9109 170.14C69.2809 170.14 68.7109 169.87 68.3609 169.36H68.3409V171.82H66.9209ZM73.0341 170V164.83H74.3841V165.79H74.4041C74.6741 165.14 75.3441 164.69 76.0541 164.69C76.1641 164.69 76.2641 164.71 76.3641 164.74V166.06C76.2341 166.03 76.0241 166.01 75.8541 166.01C74.8041 166.01 74.4541 166.75 74.4541 167.67V170H73.0341ZM78.1809 167.42C78.1809 168.25 78.4709 169.07 79.4309 169.07C80.4009 169.07 80.6909 168.25 80.6909 167.42C80.6909 166.59 80.4009 165.76 79.4309 165.76C78.4709 165.76 78.1809 166.59 78.1809 167.42ZM76.7609 167.42C76.7609 165.77 77.8109 164.69 79.4309 164.69C81.0609 164.69 82.1109 165.77 82.1109 167.42C82.1109 169.06 81.0609 170.14 79.4309 170.14C77.8109 170.14 76.7609 169.06 76.7609 167.42ZM83.0741 170V164.83H84.4141V165.53H84.4341C84.8041 165 85.3341 164.69 86.0141 164.69C86.6641 164.69 87.2441 164.92 87.5241 165.55C87.8341 165.1 88.3641 164.69 89.0841 164.69C90.1841 164.69 90.9741 165.2 90.9741 166.54V170H89.5541V167.07C89.5541 166.38 89.4941 165.81 88.6841 165.81C87.8841 165.81 87.7341 166.48 87.7341 167.12V170H86.3141V167.1C86.3141 166.5 86.3541 165.81 85.4541 165.81C85.1741 165.81 84.4941 165.99 84.4941 167V170H83.0741ZM93.3566 167.42C93.3566 168.25 93.6466 169.07 94.6066 169.07C95.5766 169.07 95.8666 168.25 95.8666 167.42C95.8666 166.59 95.5766 165.76 94.6066 165.76C93.6466 165.76 93.3566 166.59 93.3566 167.42ZM91.9366 167.42C91.9366 165.77 92.9866 164.69 94.6066 164.69C96.2366 164.69 97.2866 165.77 97.2866 167.42C97.2866 169.06 96.2366 170.14 94.6066 170.14C92.9866 170.14 91.9366 169.06 91.9366 167.42ZM105.903 166.65H104.513C104.423 166.06 104.073 165.76 103.463 165.76C102.553 165.76 102.253 166.68 102.253 167.44C102.253 168.19 102.543 169.07 103.433 169.07C104.103 169.07 104.473 168.66 104.563 168.02H105.933C105.743 169.39 104.813 170.14 103.443 170.14C101.883 170.14 100.833 169.04 100.833 167.49C100.833 165.88 101.793 164.69 103.473 164.69C104.693 164.69 105.823 165.33 105.903 166.65ZM107.995 167.42C107.995 168.25 108.285 169.07 109.245 169.07C110.215 169.07 110.505 168.25 110.505 167.42C110.505 166.59 110.215 165.76 109.245 165.76C108.285 165.76 107.995 166.59 107.995 167.42ZM106.575 167.42C106.575 165.77 107.625 164.69 109.245 164.69C110.875 164.69 111.925 165.77 111.925 167.42C111.925 169.06 110.875 170.14 109.245 170.14C107.625 170.14 106.575 169.06 106.575 167.42ZM116.519 167.4C116.519 166.56 116.219 165.76 115.299 165.76C114.369 165.76 114.049 166.57 114.049 167.41C114.049 168.22 114.419 169.07 115.299 169.07C116.229 169.07 116.519 168.25 116.519 167.4ZM116.539 170V169.34H116.519C116.189 169.9 115.619 170.14 114.949 170.14C113.389 170.14 112.629 168.81 112.629 167.37C112.629 165.98 113.399 164.69 114.919 164.69C115.529 164.69 116.129 164.95 116.449 165.46H116.469V162.86H117.889V170H116.539ZM120.132 166.86H122.442C122.312 166.14 122.002 165.76 121.312 165.76C120.392 165.76 120.162 166.46 120.132 166.86ZM123.862 167.76H120.132C120.172 168.67 120.602 169.07 121.402 169.07C121.972 169.07 122.432 168.72 122.522 168.4H123.772C123.372 169.63 122.522 170.14 121.352 170.14C119.722 170.14 118.712 169.02 118.712 167.42C118.712 165.87 119.782 164.69 121.352 164.69C123.112 164.69 123.972 166.17 123.862 167.76Z" fill="#F67E28"/>
<path d="M7 110L256 110" stroke="black"/>
<defs>
<filter id="filter0_dd_142_1918" x="0" y="46" width="263" height="160" filterUnits="userSpaceOnUse" color-interpolation-filters="sRGB">
<feFlood flood-opacity="0" result="BackgroundImageFix"/>
<feColorMatrix in="SourceAlpha" type="matrix" values="0 0 0 0 0 0 0 0 0 0 0 0 0 0 0 0 0 0 127 0" result="hardAlpha"/>
<feOffset dx="2" dy="2"/>
<feGaussianBlur stdDeviation="2.5"/>
<feComposite in2="hardAlpha" operator="out"/>
<feColorMatrix type="matrix" values="0 0 0 0 0.588235 0 0 0 0 0.588235 0 0 0 0 0.588235 0 0 0 0.25 0"/>
<feBlend mode="normal" in2="BackgroundImageFix" result="effect1_dropShadow_142_1918"/>
<feColorMatrix in="SourceAlpha" type="matrix" values="0 0 0 0 0 0 0 0 0 0 0 0 0 0 0 0 0 0 127 0" result="hardAlpha"/>
<feOffset dx="-2" dy="-2"/>
<feGaussianBlur stdDeviation="2.5"/>
<feComposite in2="hardAlpha" operator="out"/>
<feColorMatrix type="matrix" values="0 0 0 0 0.588235 0 0 0 0 0.588235 0 0 0 0 0.588235 0 0 0 0.25 0"/>
<feBlend mode="normal" in2="effect1_dropShadow_142_1918" result="effect2_dropShadow_142_1918"/>
<feBlend mode="normal" in="SourceGraphic" in2="effect2_dropShadow_142_1918" result="shape"/>
</filter>
</defs>
</svg>
