<svg width="100" height="51" viewBox="0 0 100 51" fill="none" xmlns="http://www.w3.org/2000/svg">
<path fill-rule="evenodd" clip-rule="evenodd" d="M28.9281 35.6807C24.8853 35.6807 21.5963 38.9691 21.5963 43.0119C21.5963 47.0543 24.8853 50.3432 28.9281 50.3432C32.9709 50.3432 36.2593 47.0543 36.2593 43.0119C36.2593 38.9691 32.9709 35.6807 28.9281 35.6807Z" fill="#FCB716"/>
<path fill-rule="evenodd" clip-rule="evenodd" d="M8.44017 35.6807C4.39737 35.6807 1.10889 38.9691 1.10889 43.0119C1.10889 47.0543 4.39737 50.3432 8.44017 50.3432C12.4825 50.3432 15.7719 47.0543 15.7719 43.0119C15.7719 38.9691 12.4825 35.6807 8.44017 35.6807Z" fill="#EE363F"/>
<path fill-rule="evenodd" clip-rule="evenodd" d="M49.416 35.6807C45.3727 35.6807 42.0842 38.9691 42.0842 43.0119C42.0842 47.0543 45.3727 50.3432 49.416 50.3432C53.4583 50.3432 56.7473 47.0543 56.7473 43.0119C56.7473 38.9691 53.4583 35.6807 49.416 35.6807Z" fill="#07AF56"/>
<path fill-rule="evenodd" clip-rule="evenodd" d="M90.3904 35.6807C86.3476 35.6807 83.0591 38.9691 83.0591 43.0119C83.0591 47.0543 86.3476 50.3432 90.3904 50.3432C94.4332 50.3432 97.7217 47.0543 97.7217 43.0119C97.7217 38.9691 94.4332 35.6807 90.3904 35.6807Z" fill="#04A9DF"/>
<path fill-rule="evenodd" clip-rule="evenodd" d="M69.9034 35.6812C65.8606 35.6812 62.5712 38.9696 62.5712 43.012C62.5712 47.0548 65.8601 50.3428 69.9029 50.3428C73.9457 50.3428 77.2342 47.0548 77.2342 43.012C77.2342 38.9696 73.9462 35.6812 69.9034 35.6812Z" fill="#A1479A"/>
<path fill-rule="evenodd" clip-rule="evenodd" d="M0.000244141 14.907C0.000244141 10.1531 3.81605 6.56427 8.53704 6.56427C13.29 6.56427 17.0734 10.1211 17.0734 14.8745V22.1823C17.0734 22.9258 16.5564 23.4433 15.78 23.4433C14.9716 23.4433 14.4866 22.9258 14.4866 22.1823V20.0481H14.3573C13.3548 21.7617 11.3499 23.2492 8.37489 23.2492C3.78362 23.2492 0.000244141 19.6923 0.000244141 14.907ZM14.5514 14.907C14.5514 11.4794 11.9642 8.89257 8.53704 8.89257C5.10897 8.89257 2.52218 11.4794 2.52218 14.907C2.52218 18.3341 5.10897 20.9213 8.53704 20.9213C11.9642 20.9213 14.5514 18.3341 14.5514 14.907ZM23.7358 28.6496C23.0567 28.3263 22.7329 27.744 22.9918 27.0653C23.2508 26.3533 23.8975 26.0628 24.5761 26.3862C25.7408 26.9356 27.1954 27.3238 28.7472 27.3238C32.5959 27.3238 34.9238 25.0279 34.9238 21.1153V20.048H34.7941C33.7916 21.762 31.7876 23.249 28.8121 23.249C24.2204 23.249 20.437 19.6922 20.437 14.9068C20.437 10.1534 24.2528 6.56413 28.9742 6.56413C33.7277 6.56413 37.511 10.1214 37.511 14.8744V20.9536C37.511 26.1921 34.1474 29.7165 28.6504 29.7165C26.9693 29.7165 25.2877 29.3931 23.7358 28.6496ZM34.9882 14.9068C34.9882 11.4792 32.4014 8.89196 28.9742 8.89196C25.5467 8.89196 22.9599 11.4792 22.9599 14.9068C22.9599 18.3344 25.5467 20.9212 28.9742 20.9212C32.4014 20.9212 34.9882 18.3344 34.9882 14.9068ZM40.8742 14.907C40.8742 10.1531 44.658 6.56427 49.4114 6.56427C54.1644 6.56427 57.9477 10.1531 57.9477 14.907C57.9477 19.6599 54.1644 23.2492 49.4114 23.2492C44.658 23.2492 40.8742 19.6599 40.8742 14.907ZM55.4258 14.907C55.4258 11.4794 52.8385 8.89257 49.4114 8.89257C45.9834 8.89257 43.3966 11.4794 43.3966 14.907C43.3966 18.3341 45.9834 20.9213 49.4114 20.9213C52.8385 20.9213 55.4258 18.3341 55.4258 14.907ZM61.3116 14.907C61.3116 10.1531 65.0621 6.56427 69.6863 6.56427C72.6613 6.56427 74.6662 8.05177 75.6687 9.76533H75.7979V1.26097C75.7979 0.517453 76.3154 0 77.0913 0C77.9002 0 78.3847 0.517453 78.3847 1.26097V14.9389C78.3847 19.6923 74.6013 23.2492 69.8484 23.2492C65.1274 23.2492 61.3116 19.6599 61.3116 14.907ZM75.8628 14.907C75.8628 11.4794 73.2755 8.89257 69.8484 8.89257C66.4203 8.89257 63.8335 11.4794 63.8335 14.907C63.8335 18.3341 66.4203 20.9213 69.8484 20.9213C73.2755 20.9213 75.8628 18.3341 75.8628 14.907ZM81.7485 14.907C81.7485 10.1531 85.5643 6.56427 90.2853 6.56427C95.0388 6.56427 98.8221 10.1211 98.8221 14.8745V22.1823C98.8221 22.9258 98.3047 23.4433 97.5287 23.4433C96.7199 23.4433 96.2349 22.9258 96.2349 22.1823V20.0481H96.1056C95.1032 21.7617 93.0987 23.2492 90.1237 23.2492C85.5319 23.2492 81.7485 19.6923 81.7485 14.907ZM96.2997 14.907C96.2997 11.4794 93.7129 8.89257 90.2853 8.89257C86.8577 8.89257 84.2709 11.4794 84.2709 14.907C84.2709 18.3341 86.8577 20.9213 90.2853 20.9213C93.7129 20.9213 96.2997 18.3341 96.2997 14.907Z" fill="#5A5B5B"/>
</svg>
